<?xml version="1.0" standalone="no"?>
<!DOCTYPE svg PUBLIC "-//W3C//DTD SVG 20010904//EN"
 "http://www.w3.org/TR/2001/REC-SVG-20010904/DTD/svg10.dtd">
<svg version="1.0" xmlns="http://www.w3.org/2000/svg"
 width="1042.000000pt" height="469.000000pt" viewBox="0 0 1042.000000 469.000000"
 preserveAspectRatio="xMidYMid meet">

<g transform="translate(0.000000,469.000000) scale(0.100000,-0.100000)"
fill="#000000" stroke="none">
<path d="M1310 4684 c-351 -31 -643 -166 -891 -413 -276 -276 -411 -606 -410
-996 1 -381 139 -713 411 -986 198 -198 429 -324 713 -386 118 -26 437 -25
557 1 259 56 442 151 690 356 424 351 601 442 885 457 180 9 363 -34 521 -122
77 -43 296 -206 444 -329 154 -129 231 -181 365 -247 201 -98 382 -139 615
-139 223 0 410 41 597 130 136 64 211 115 378 252 184 151 369 288 449 333
158 88 341 131 521 122 286 -15 459 -105 885 -457 244 -202 417 -292 670 -351
127 -30 385 -37 521 -15 121 20 306 79 406 129 261 132 495 363 622 615 84
167 135 347 150 530 34 421 -119 825 -422 1119 -164 158 -326 257 -537 327
-151 50 -269 69 -440 69 -165 0 -278 -17 -427 -64 -188 -60 -334 -144 -528
-305 -198 -164 -414 -322 -500 -363 -295 -145 -607 -143 -895 5 -89 46 -279
183 -461 334 -149 123 -219 173 -313 225 -420 228 -932 228 -1352 0 -94 -52
-164 -102 -313 -225 -403 -334 -575 -423 -861 -445 -159 -12 -379 38 -526 120
-78 44 -291 202 -463 344 -68 56 -150 120 -181 141 -140 95 -363 185 -530 214
-91 15 -277 26 -350 20z m276 -245 c496 -69 903 -464 988 -958 122 -715 -427
-1371 -1148 -1371 -329 0 -608 118 -841 355 -207 210 -318 462 -332 752 -17
343 100 647 342 888 263 264 624 385 991 334z m3907 -23 c218 -56 379 -149
542 -311 219 -219 329 -469 342 -771 14 -330 -92 -618 -315 -856 -444 -472
-1186 -494 -1656 -48 -332 315 -451 790 -306 1222 121 361 421 649 787 753
130 37 192 44 358 40 120 -3 170 -8 248 -29z m3693 19 c497 -80 889 -472 969
-969 37 -229 -2 -502 -101 -698 -86 -172 -245 -355 -394 -455 -529 -354 -1224
-236 -1603 272 -263 353 -301 833 -99 1230 169 329 507 572 867 624 96 14 263
12 361 -4z"/>
<path d="M1293 4389 c-377 -44 -713 -283 -878 -624 -77 -159 -108 -299 -108
-485 0 -195 32 -330 118 -505 104 -210 284 -388 500 -495 625 -310 1374 21
1569 693 172 592 -185 1225 -779 1383 -151 40 -278 50 -422 33z m-16 -754 c48
-20 71 -41 94 -87 47 -92 8 -213 -83 -257 -112 -54 -236 5 -269 129 -38 145
117 274 258 215z m479 -54 c53 -24 86 -71 92 -130 15 -157 -174 -243 -277
-126 -77 88 -52 208 53 256 52 23 80 23 132 0z m-596 -380 c29 -6 61 -6 90 1
94 21 123 20 170 -4 67 -35 101 -90 107 -175 5 -63 3 -72 -20 -99 l-25 -29
-277 0 -277 0 -24 28 c-19 22 -24 39 -24 83 0 93 39 160 115 196 41 19 71 19
165 -1z m717 -17 c77 -61 105 -163 58 -209 -24 -25 -27 -25 -188 -25 l-164 0
-5 70 c-4 49 -13 86 -32 121 -14 28 -26 53 -26 55 0 14 58 20 181 19 138 -1
138 -1 176 -31z"/>
<path d="M5083 4390 c-169 -21 -349 -86 -484 -175 -100 -65 -273 -240 -332
-336 -282 -454 -216 -1025 162 -1396 436 -429 1137 -426 1570 8 120 119 215
270 266 423 92 275 80 556 -34 818 -122 277 -380 513 -666 607 -144 47 -343
68 -482 51z m169 -772 l3 -123 88 -5 87 -5 -120 -120 -120 -120 -120 120 -120
120 87 5 88 5 3 123 3 122 59 0 59 0 3 -122z m-232 -348 c-8 -5 -61 -26 -118
-46 -57 -20 -100 -40 -95 -44 13 -12 365 -140 385 -140 19 0 368 128 381 140
4 3 -44 26 -108 49 -63 24 -115 46 -115 50 0 4 15 21 33 38 l32 31 138 -51
138 -52 -3 -125 -3 -125 -247 -93 -248 -94 -247 94 -248 93 -3 125 -3 125 138
52 138 51 35 -34 c29 -28 32 -36 20 -44z"/>
<path d="M8873 4390 c-334 -42 -632 -227 -811 -503 -406 -629 -90 -1472 631
-1681 379 -110 803 -4 1081 271 227 223 338 489 338 803 0 313 -104 563 -326
786 -169 169 -340 262 -566 308 -98 20 -257 27 -347 16z m-156 -762 c6 -7 15
-26 20 -43 l10 -30 18 43 c17 42 35 51 64 33 8 -5 12 -19 9 -35 -6 -30 -1 -31
26 -11 17 13 22 13 38 -2 24 -22 23 -41 -4 -64 l-23 -18 32 -1 c41 0 50 -16
24 -44 -11 -12 -26 -37 -33 -56 -6 -19 -27 -49 -45 -67 l-34 -31 3 -201 3
-201 -120 0 c-179 0 -165 -27 -165 304 0 198 3 275 12 284 7 7 25 12 41 12
l30 0 -27 25 c-24 22 -26 28 -14 43 22 29 32 32 57 15 23 -15 24 -15 17 10 -9
37 39 64 61 35z m371 -188 c18 -11 41 -34 50 -50 9 -16 19 -30 22 -30 3 0 13
14 22 30 25 44 75 72 118 66 48 -7 90 -55 90 -101 0 -30 3 -35 23 -35 39 0 47
-18 47 -107 l0 -83 -140 0 -140 0 0 95 c0 88 -1 95 -20 95 -19 0 -20 -7 -20
-95 l0 -95 -140 0 -140 0 0 79 c0 85 12 111 51 111 15 0 19 7 19 34 0 37 30
83 64 96 34 14 59 11 94 -10z m52 -445 l0 -95 -118 0 c-157 0 -162 4 -162 111
l0 79 140 0 140 0 0 -95z m320 15 c0 -107 -7 -112 -161 -108 l-114 3 -3 93 -3
92 141 0 140 0 0 -80z"/>
<path d="M9006 3364 c-10 -25 12 -44 50 -44 38 0 41 6 18 38 -18 26 -59 29
-68 6z"/>
<path d="M9246 3355 c-22 -33 -21 -35 18 -35 37 0 62 21 52 45 -9 24 -52 18
-70 -10z"/>
<path d="M1040 1255 c0 -8 7 -15 15 -15 8 0 15 7 15 15 0 8 -7 15 -15 15 -8 0
-15 -7 -15 -15z"/>
<path d="M5270 1255 c0 -8 7 -15 15 -15 8 0 15 7 15 15 0 8 -7 15 -15 15 -8 0
-15 -7 -15 -15z"/>
<path d="M5880 1226 l0 -44 -28 13 c-15 8 -38 12 -50 8 -25 -6 -52 -50 -52
-83 0 -33 27 -77 52 -83 12 -4 35 0 50 8 24 12 28 11 28 -1 0 -8 5 -14 10 -14
6 0 10 47 10 120 0 73 -4 120 -10 120 -5 0 -10 -20 -10 -44z m-16 -58 c21 -30
20 -71 -2 -98 -39 -48 -102 4 -87 72 11 49 63 64 89 26z"/>
<path d="M9310 1226 l0 -44 -28 13 c-15 8 -38 12 -50 8 -25 -6 -52 -50 -52
-83 0 -33 27 -77 52 -83 12 -4 35 0 50 8 24 12 28 11 28 -1 0 -8 5 -14 10 -14
6 0 10 47 10 120 0 73 -4 120 -10 120 -5 0 -10 -20 -10 -44z m-16 -58 c21 -30
20 -71 -2 -98 -39 -48 -102 4 -87 72 11 49 63 64 89 26z"/>
<path d="M570 1145 c0 -70 4 -115 10 -115 6 0 10 45 10 115 0 70 -4 115 -10
115 -6 0 -10 -45 -10 -115z"/>
<path d="M4180 1254 c0 -3 18 -31 40 -61 35 -49 40 -63 40 -110 0 -29 5 -53
10 -53 6 0 10 25 10 56 0 48 5 63 40 115 23 33 35 59 28 59 -7 0 -28 -23 -46
-51 l-34 -51 -34 51 c-30 44 -54 64 -54 45z"/>
<path d="M4990 1145 c0 -70 4 -115 10 -115 6 0 10 27 10 60 l0 60 45 0 c25 0
45 5 45 10 0 6 -20 10 -45 10 -45 0 -45 0 -45 35 l0 35 50 0 c28 0 50 5 50 10
0 6 -27 10 -60 10 l-60 0 0 -115z"/>
<path d="M8120 1254 c0 -3 18 -31 40 -61 35 -49 40 -63 40 -110 0 -29 5 -53
10 -53 6 0 10 25 10 56 0 48 5 63 40 115 23 33 35 59 28 59 -7 0 -28 -23 -46
-51 l-34 -51 -34 51 c-30 44 -54 64 -54 45z"/>
<path d="M1130 1231 c0 -11 -6 -22 -12 -25 -10 -5 -10 -7 0 -12 7 -4 12 -27
12 -65 0 -46 5 -64 20 -79 21 -21 60 -27 60 -10 0 6 -9 10 -20 10 -27 0 -42
33 -38 88 3 43 5 47 31 50 37 4 35 22 -3 22 -23 0 -30 4 -30 20 0 11 -4 20
-10 20 -5 0 -10 -9 -10 -19z"/>
<path d="M650 1120 c0 -53 4 -90 10 -90 6 0 10 22 10 49 0 66 14 99 45 107 42
10 55 -10 55 -87 0 -39 4 -69 10 -69 6 0 10 32 10 75 0 68 -2 76 -25 91 -22
14 -27 14 -56 0 -39 -20 -39 -20 -39 -1 0 8 -4 15 -10 15 -6 0 -10 -37 -10
-90z"/>
<path d="M841 1198 c0 -7 13 -47 28 -88 38 -101 54 -100 92 4 32 87 33 96 20
96 -5 0 -19 -28 -30 -62 -24 -71 -36 -94 -43 -82 -3 5 -15 39 -27 77 -13 37
-27 67 -32 67 -5 0 -9 -6 -8 -12z"/>
<path d="M1040 1120 c0 -73 3 -90 15 -90 12 0 15 17 15 90 0 73 -3 90 -15 90
-12 0 -15 -17 -15 -90z"/>
<path d="M1304 1200 c-29 -12 -54 -49 -54 -80 0 -56 54 -96 116 -84 49 9 42
25 -9 18 -44 -6 -65 7 -80 49 -6 15 1 17 63 17 39 0 70 2 70 4 0 24 -28 69
-47 77 -28 11 -31 11 -59 -1z m64 -22 c26 -26 13 -38 -38 -38 -37 0 -50 4 -50
15 0 29 64 47 88 23z"/>
<path d="M1550 1204 c0 -4 14 -45 32 -90 26 -71 30 -88 20 -109 -6 -14 -18
-25 -27 -25 -8 0 -15 -4 -15 -10 0 -14 23 -13 43 3 9 6 34 59 57 116 43 111
45 121 31 121 -5 0 -20 -30 -34 -67 -13 -38 -28 -67 -33 -66 -5 1 -19 31 -33
67 -13 36 -28 66 -32 66 -5 0 -9 -3 -9 -6z"/>
<path d="M1789 1199 c-63 -23 -64 -130 -2 -158 55 -25 103 12 103 79 0 66 -43
100 -101 79z m63 -26 c25 -22 24 -84 -2 -108 -44 -40 -103 20 -79 83 17 44 49
54 81 25z"/>
<path d="M1950 1146 c0 -79 6 -95 38 -107 18 -7 31 -5 48 6 29 19 34 19 34 0
0 -8 5 -15 10 -15 6 0 10 37 10 90 0 53 -4 90 -10 90 -6 0 -10 -26 -10 -58 0
-63 -19 -102 -50 -102 -36 0 -50 27 -50 96 0 36 -4 64 -10 64 -6 0 -10 -28
-10 -64z"/>
<path d="M2150 1120 c0 -53 4 -90 10 -90 6 0 10 22 10 49 0 71 14 100 50 107
16 4 30 11 30 16 0 10 -40 1 -54 -13 -15 -13 -26 -11 -26 6 0 8 -4 15 -10 15
-6 0 -10 -37 -10 -90z"/>
<path d="M4389 1199 c-63 -23 -64 -130 -2 -158 55 -25 103 12 103 79 0 66 -43
100 -101 79z m63 -26 c25 -22 24 -84 -2 -108 -44 -40 -103 20 -79 83 17 44 49
54 81 25z"/>
<path d="M4550 1146 c0 -79 6 -95 38 -107 18 -7 31 -5 48 6 29 19 34 19 34 0
0 -8 5 -15 10 -15 6 0 10 37 10 90 0 53 -4 90 -10 90 -6 0 -10 -26 -10 -58 0
-63 -19 -102 -50 -102 -36 0 -50 27 -50 96 0 36 -4 64 -10 64 -6 0 -10 -28
-10 -64z"/>
<path d="M4750 1120 c0 -53 4 -90 10 -90 6 0 10 22 10 49 0 71 14 100 50 107
16 4 30 11 30 16 0 10 -40 1 -54 -13 -15 -13 -26 -11 -26 6 0 8 -4 15 -10 15
-6 0 -10 -37 -10 -90z"/>
<path d="M5140 1120 c0 -53 4 -90 10 -90 6 0 10 22 10 49 0 71 14 100 50 107
16 4 30 11 30 16 0 10 -40 1 -54 -13 -15 -13 -26 -11 -26 6 0 8 -4 15 -10 15
-6 0 -10 -37 -10 -90z"/>
<path d="M5270 1120 c0 -73 3 -90 15 -90 12 0 15 17 15 90 0 73 -3 90 -15 90
-12 0 -15 -17 -15 -90z"/>
<path d="M5404 1200 c-29 -12 -54 -49 -54 -80 0 -56 54 -96 116 -84 49 9 42
25 -9 18 -44 -6 -65 7 -80 49 -6 15 1 17 63 17 39 0 70 2 70 4 0 24 -28 69
-47 77 -28 11 -31 11 -59 -1z m64 -22 c26 -26 13 -38 -38 -38 -37 0 -50 4 -50
15 0 29 64 47 88 23z"/>
<path d="M5560 1120 c0 -53 4 -90 10 -90 6 0 10 22 10 49 0 66 14 99 45 107
42 10 55 -10 55 -87 0 -39 4 -69 10 -69 6 0 10 32 10 75 0 68 -2 76 -25 91
-22 14 -27 14 -56 0 -39 -20 -39 -20 -39 -1 0 8 -4 15 -10 15 -6 0 -10 -37
-10 -90z"/>
<path d="M5982 1200 c-51 -21 -38 -68 24 -86 32 -9 39 -15 39 -35 0 -22 -4
-24 -47 -22 -55 1 -64 -12 -14 -21 71 -13 123 38 76 76 -12 10 -30 18 -39 18
-10 0 -26 6 -36 14 -17 12 -17 16 -5 31 10 13 24 16 52 12 21 -3 38 -1 38 4 0
5 -6 9 -12 9 -7 0 -22 2 -33 5 -11 2 -30 0 -43 -5z"/>
<path d="M8329 1199 c-63 -23 -64 -130 -2 -158 55 -25 103 12 103 79 0 66 -43
100 -101 79z m63 -26 c25 -22 24 -84 -2 -108 -44 -40 -103 20 -79 83 17 44 49
54 81 25z"/>
<path d="M8490 1146 c0 -79 6 -95 38 -107 18 -7 31 -5 48 6 29 19 34 19 34 0
0 -8 5 -15 10 -15 6 0 10 37 10 90 0 53 -4 90 -10 90 -6 0 -10 -26 -10 -58 0
-63 -19 -102 -50 -102 -36 0 -50 27 -50 96 0 36 -4 64 -10 64 -6 0 -10 -28
-10 -64z"/>
<path d="M8823 1203 c-13 -2 -23 -8 -23 -13 0 -5 13 -7 29 -4 33 7 71 -10 71
-31 0 -11 -12 -15 -40 -15 -38 0 -80 -26 -80 -49 0 -45 47 -69 91 -47 25 12
29 13 29 0 0 -8 5 -14 10 -14 15 0 12 133 -2 153 -15 18 -52 27 -85 20z m77
-100 c0 -25 -30 -53 -56 -53 -29 0 -46 28 -33 52 13 25 89 26 89 1z"/>
<path d="M8990 1120 c0 -53 4 -90 10 -90 6 0 10 22 10 49 0 66 14 99 45 107
42 10 55 -10 55 -87 0 -39 4 -69 10 -69 6 0 10 32 10 75 0 68 -2 76 -25 91
-22 14 -27 14 -56 0 -39 -20 -39 -20 -39 -1 0 8 -4 15 -10 15 -6 0 -10 -37
-10 -90z"/>
<path d="M9480 1204 c0 -4 14 -45 32 -90 26 -71 30 -88 20 -109 -6 -14 -18
-25 -27 -25 -8 0 -15 -4 -15 -10 0 -14 23 -13 43 3 9 6 34 59 57 116 43 111
45 121 31 121 -5 0 -20 -30 -34 -67 -13 -38 -28 -67 -33 -66 -5 1 -19 31 -33
67 -13 36 -28 66 -32 66 -5 0 -9 -3 -9 -6z"/>
<path d="M9719 1199 c-63 -23 -64 -130 -2 -158 55 -25 103 12 103 79 0 66 -43
100 -101 79z m63 -26 c25 -22 24 -84 -2 -108 -44 -40 -103 20 -79 83 17 44 49
54 81 25z"/>
<path d="M9880 1146 c0 -79 6 -95 38 -107 18 -7 31 -5 48 6 29 19 34 19 34 0
0 -8 5 -15 10 -15 6 0 10 37 10 90 0 53 -4 90 -10 90 -6 0 -10 -26 -10 -58 0
-63 -19 -102 -50 -102 -36 0 -50 27 -50 96 0 36 -4 64 -10 64 -6 0 -10 -28
-10 -64z"/>
<path d="M10080 1120 c0 -53 4 -90 10 -90 6 0 10 22 10 49 0 71 14 100 50 107
16 4 30 11 30 16 0 10 -40 1 -54 -13 -15 -13 -26 -11 -26 6 0 8 -4 15 -10 15
-6 0 -10 -37 -10 -90z"/>
<path d="M910 795 c0 -8 7 -15 15 -15 8 0 15 7 15 15 0 8 -7 15 -15 15 -8 0
-15 -7 -15 -15z"/>
<path d="M1520 766 l0 -44 -28 13 c-15 8 -38 12 -50 8 -25 -6 -52 -50 -52 -83
0 -33 27 -77 52 -83 12 -4 35 0 50 8 24 12 28 11 28 -1 0 -8 5 -14 10 -14 6 0
10 47 10 120 0 73 -4 120 -10 120 -5 0 -10 -20 -10 -44z m-16 -58 c21 -30 20
-71 -2 -98 -39 -48 -102 4 -87 72 11 49 63 64 89 26z"/>
<path d="M8610 795 c0 -8 7 -15 15 -15 8 0 15 7 15 15 0 8 -7 15 -15 15 -8 0
-15 -7 -15 -15z"/>
<path d="M9220 766 l0 -44 -28 13 c-15 8 -38 12 -50 8 -25 -6 -52 -50 -52 -83
0 -33 27 -77 52 -83 12 -4 35 0 50 8 24 12 28 11 28 -1 0 -8 5 -14 10 -14 6 0
10 47 10 120 0 73 -4 120 -10 120 -5 0 -10 -20 -10 -44z m-16 -58 c21 -30 20
-71 -2 -98 -39 -48 -102 4 -87 72 11 49 63 64 89 26z"/>
<path d="M630 685 c0 -70 4 -115 10 -115 6 0 10 27 10 60 l0 60 45 0 c25 0 45
5 45 10 0 6 -20 10 -45 10 -45 0 -45 0 -45 35 l0 35 50 0 c28 0 50 5 50 10 0
6 -27 10 -60 10 l-60 0 0 -115z"/>
<path d="M4920 680 c0 -100 3 -120 15 -120 13 0 15 20 15 120 0 100 -2 120
-15 120 -12 0 -15 -20 -15 -120z"/>
<path d="M5530 756 l0 -44 -28 13 c-15 8 -38 12 -50 8 -25 -6 -52 -50 -52 -83
0 -33 27 -77 52 -83 12 -4 35 0 50 8 24 12 28 11 28 -1 0 -8 5 -14 10 -14 6 0
10 47 10 120 0 73 -4 120 -10 120 -5 0 -10 -20 -10 -44z m-16 -58 c21 -30 20
-71 -2 -98 -39 -48 -102 4 -87 72 11 49 63 64 89 26z"/>
<path d="M8330 685 c0 -70 4 -115 10 -115 6 0 10 27 10 60 l0 60 45 0 c25 0
45 5 45 10 0 6 -20 10 -45 10 -45 0 -45 0 -45 35 l0 35 50 0 c28 0 50 5 50 10
0 6 -27 10 -60 10 l-60 0 0 -115z"/>
<path d="M1860 771 c0 -11 -6 -22 -12 -25 -10 -5 -10 -7 0 -12 7 -4 12 -27 12
-65 0 -46 5 -64 20 -79 21 -21 60 -27 60 -10 0 6 -9 10 -20 10 -27 0 -42 33
-38 88 3 43 5 47 31 50 37 4 35 22 -3 22 -23 0 -30 4 -30 20 0 11 -4 20 -10
20 -5 0 -10 -9 -10 -19z"/>
<path d="M4020 675 l0 -115 28 0 c56 0 103 13 127 36 21 19 25 32 25 79 0 47
-4 60 -25 79 -24 23 -71 36 -127 36 l-28 0 0 -115z m134 66 c15 -16 21 -34 21
-66 0 -58 -26 -85 -89 -92 l-46 -6 0 98 0 98 46 -6 c29 -3 54 -13 68 -26z"/>
<path d="M9970 771 c0 -11 -6 -22 -12 -25 -10 -5 -10 -7 0 -12 7 -4 12 -27 12
-65 0 -46 5 -64 20 -79 21 -21 60 -27 60 -10 0 6 -9 10 -20 10 -27 0 -42 33
-38 88 3 43 5 47 31 50 37 4 35 22 -3 22 -23 0 -30 4 -30 20 0 11 -4 20 -10
20 -5 0 -10 -9 -10 -19z"/>
<path d="M780 660 c0 -53 4 -90 10 -90 6 0 10 22 10 49 0 71 14 100 50 107 16
4 30 11 30 16 0 10 -40 1 -54 -13 -15 -13 -26 -11 -26 6 0 8 -4 15 -10 15 -6
0 -10 -37 -10 -90z"/>
<path d="M910 660 c0 -73 3 -90 15 -90 12 0 15 17 15 90 0 73 -3 90 -15 90
-12 0 -15 -17 -15 -90z"/>
<path d="M1044 740 c-29 -12 -54 -49 -54 -80 0 -56 54 -96 116 -84 49 9 42 25
-9 18 -44 -6 -65 7 -80 49 -6 15 1 17 63 17 39 0 70 2 70 4 0 24 -28 69 -47
77 -28 11 -31 11 -59 -1z m64 -22 c26 -26 13 -38 -38 -38 -37 0 -50 4 -50 15
0 29 64 47 88 23z"/>
<path d="M1200 660 c0 -53 4 -90 10 -90 6 0 10 22 10 49 0 66 14 99 45 107 42
10 55 -10 55 -87 0 -39 4 -69 10 -69 6 0 10 32 10 75 0 68 -2 76 -25 91 -22
14 -27 14 -56 0 -39 -20 -39 -20 -39 -1 0 8 -4 15 -10 15 -6 0 -10 -37 -10
-90z"/>
<path d="M1622 740 c-51 -21 -38 -68 24 -86 32 -9 39 -15 39 -35 0 -22 -4 -24
-47 -22 -55 1 -64 -12 -14 -21 71 -13 123 38 76 76 -12 10 -30 18 -39 18 -10
0 -26 6 -36 14 -17 12 -17 16 -5 31 10 13 24 16 52 12 21 -3 38 -1 38 4 0 5
-6 9 -12 9 -7 0 -22 2 -33 5 -11 2 -30 0 -43 -5z"/>
<path d="M2029 739 c-63 -23 -64 -130 -2 -158 55 -25 103 12 103 79 0 66 -43
100 -101 79z m63 -26 c25 -22 24 -84 -2 -108 -44 -40 -103 20 -79 83 17 44 49
54 81 25z"/>
<path d="M8480 660 c0 -53 4 -90 10 -90 6 0 10 22 10 49 0 71 14 100 50 107
16 4 30 11 30 16 0 10 -40 1 -54 -13 -15 -13 -26 -11 -26 6 0 8 -4 15 -10 15
-6 0 -10 -37 -10 -90z"/>
<path d="M8610 660 c0 -73 3 -90 15 -90 12 0 15 17 15 90 0 73 -3 90 -15 90
-12 0 -15 -17 -15 -90z"/>
<path d="M8744 740 c-29 -12 -54 -49 -54 -80 0 -56 54 -96 116 -84 49 9 42 25
-9 18 -44 -6 -65 7 -80 49 -6 15 1 17 63 17 39 0 70 2 70 4 0 24 -28 69 -47
77 -28 11 -31 11 -59 -1z m64 -22 c26 -26 13 -38 -38 -38 -37 0 -50 4 -50 15
0 29 64 47 88 23z"/>
<path d="M8900 660 c0 -53 4 -90 10 -90 6 0 10 22 10 49 0 66 14 99 45 107 42
10 55 -10 55 -87 0 -39 4 -69 10 -69 6 0 10 32 10 75 0 68 -2 76 -25 91 -22
14 -27 14 -56 0 -39 -20 -39 -20 -39 -1 0 8 -4 15 -10 15 -6 0 -10 -37 -10
-90z"/>
<path d="M9322 740 c-51 -21 -38 -68 24 -86 32 -9 39 -15 39 -35 0 -22 -4 -24
-47 -22 -55 1 -64 -12 -14 -21 71 -13 123 38 76 76 -12 10 -30 18 -39 18 -10
0 -26 6 -36 14 -17 12 -17 16 -5 31 10 13 24 16 52 12 21 -3 38 -1 38 4 0 5
-6 9 -12 9 -7 0 -22 2 -33 5 -11 2 -30 0 -43 -5z"/>
<path d="M9607 743 c-20 -5 -47 -52 -47 -83 0 -33 27 -77 52 -83 12 -4 35 0
50 8 25 12 28 12 28 -4 0 -9 -7 -27 -16 -40 -14 -20 -23 -22 -55 -18 -46 6
-53 -8 -9 -17 37 -7 75 7 89 33 14 25 15 211 1 211 -5 0 -10 -6 -10 -14 0 -13
-4 -13 -27 0 -16 7 -30 13 -33 13 -3 -1 -13 -3 -23 -6z m67 -35 c32 -45 8
-118 -38 -118 -32 0 -51 25 -51 70 0 21 7 45 14 54 19 23 57 20 75 -6z"/>
<path d="M9814 740 c-29 -12 -54 -49 -54 -80 0 -56 54 -96 116 -84 49 9 42 25
-9 18 -44 -6 -65 7 -80 49 -6 15 1 17 63 17 39 0 70 2 70 4 0 24 -28 69 -47
77 -28 11 -31 11 -59 -1z m64 -22 c26 -26 13 -38 -38 -38 -37 0 -50 4 -50 15
0 29 64 47 88 23z"/>
<path d="M4299 729 c-63 -23 -64 -130 -2 -158 55 -25 103 12 103 79 0 66 -43
100 -101 79z m63 -26 c25 -22 24 -84 -2 -108 -44 -40 -103 20 -79 83 17 44 49
54 81 25z"/>
<path d="M4450 735 c0 -3 10 -44 21 -90 30 -118 48 -112 75 23 11 53 20 45 38
-33 11 -46 23 -75 31 -75 8 0 21 31 34 78 23 87 25 102 12 102 -5 0 -17 -32
-26 -71 -20 -79 -26 -77 -46 14 -17 77 -38 74 -59 -10 -8 -34 -18 -64 -21 -67
-3 -3 -13 26 -23 64 -10 39 -22 70 -27 70 -5 0 -9 -2 -9 -5z"/>
<path d="M4720 650 c0 -53 4 -90 10 -90 6 0 10 22 10 49 0 66 14 99 45 107 42
10 55 -10 55 -87 0 -39 4 -69 10 -69 6 0 10 32 10 75 0 68 -2 76 -25 91 -22
14 -27 14 -56 0 -39 -20 -39 -20 -39 -1 0 8 -4 15 -10 15 -6 0 -10 -37 -10
-90z"/>
<path d="M5049 729 c-63 -23 -64 -130 -2 -158 55 -25 103 12 103 79 0 66 -43
100 -101 79z m63 -26 c25 -22 24 -84 -2 -108 -44 -40 -103 20 -79 83 17 44 49
54 81 25z"/>
<path d="M5243 733 c-13 -2 -23 -8 -23 -13 0 -5 13 -7 29 -4 33 7 71 -10 71
-31 0 -11 -12 -15 -40 -15 -38 0 -80 -26 -80 -49 0 -45 47 -69 91 -47 25 12
29 13 29 0 0 -8 5 -14 10 -14 15 0 12 133 -2 153 -15 18 -52 27 -85 20z m77
-100 c0 -25 -30 -53 -56 -53 -29 0 -46 28 -33 52 13 25 89 26 89 1z"/>
<path d="M5743 733 c-13 -2 -23 -8 -23 -13 0 -5 13 -7 29 -4 33 7 71 -10 71
-31 0 -11 -12 -15 -40 -15 -38 0 -80 -26 -80 -49 0 -45 47 -69 91 -47 25 12
29 13 29 0 0 -8 5 -14 10 -14 15 0 12 133 -2 153 -15 18 -52 27 -85 20z m77
-100 c0 -25 -30 -53 -56 -53 -29 0 -46 28 -33 52 13 25 89 26 89 1z"/>
<path d="M5910 615 c0 -77 4 -125 10 -125 6 0 10 23 10 50 0 28 2 50 5 50 3 0
16 -7 29 -15 45 -30 96 10 96 75 0 65 -51 105 -96 75 -29 -19 -34 -19 -34 0 0
8 -4 15 -10 15 -6 0 -10 -48 -10 -125z m114 83 c30 -42 9 -118 -33 -118 -35 0
-54 25 -54 70 0 66 54 95 87 48z"/>
<path d="M6110 615 c0 -77 4 -125 10 -125 6 0 10 23 10 50 0 28 2 50 5 50 3 0
16 -7 29 -15 45 -30 96 10 96 75 0 65 -51 105 -96 75 -29 -19 -34 -19 -34 0 0
8 -4 15 -10 15 -6 0 -10 -48 -10 -125z m114 83 c30 -42 9 -118 -33 -118 -35 0
-54 25 -54 70 0 66 54 95 87 48z"/>
<path d="M980 335 c0 -8 7 -15 15 -15 8 0 15 7 15 15 0 8 -7 15 -15 15 -8 0
-15 -7 -15 -15z"/>
<path d="M9460 306 l0 -44 -28 13 c-15 8 -38 12 -50 8 -25 -6 -52 -50 -52 -83
0 -33 27 -77 52 -83 12 -4 35 0 50 8 24 12 28 11 28 -1 0 -8 5 -14 10 -14 6 0
10 47 10 120 0 73 -4 120 -10 120 -5 0 -10 -20 -10 -44z m-16 -58 c21 -30 20
-71 -2 -98 -39 -48 -102 4 -87 72 11 49 63 64 89 26z"/>
<path d="M9860 306 l0 -44 -28 13 c-15 8 -38 12 -50 8 -25 -6 -52 -50 -52 -83
0 -33 27 -77 52 -83 12 -4 35 0 50 8 24 12 28 11 28 -1 0 -8 5 -14 10 -14 6 0
10 47 10 120 0 73 -4 120 -10 120 -5 0 -10 -20 -10 -44z m-16 -58 c21 -30 20
-71 -2 -98 -39 -48 -102 4 -87 72 11 49 63 64 89 26z"/>
<path d="M832 280 c-51 -21 -38 -68 24 -86 32 -9 39 -15 39 -35 0 -22 -4 -24
-47 -22 -55 1 -64 -12 -14 -21 71 -13 123 38 76 76 -12 10 -30 18 -39 18 -10
0 -26 6 -36 14 -17 12 -17 16 -5 31 10 13 24 16 52 12 21 -3 38 -1 38 4 0 5
-6 9 -12 9 -7 0 -22 2 -33 5 -11 2 -30 0 -43 -5z"/>
<path d="M980 200 c0 -73 3 -90 15 -90 12 0 15 17 15 90 0 73 -3 90 -15 90
-12 0 -15 -17 -15 -90z"/>
<path d="M1107 283 c-20 -5 -47 -52 -47 -83 0 -33 27 -77 52 -83 12 -4 35 0
50 8 25 12 28 12 28 -4 0 -9 -7 -27 -16 -40 -14 -20 -23 -22 -55 -18 -46 6
-53 -8 -9 -17 37 -7 75 7 89 33 14 25 15 211 1 211 -5 0 -10 -6 -10 -14 0 -13
-4 -13 -27 0 -16 7 -30 13 -33 13 -3 -1 -13 -3 -23 -6z m67 -35 c32 -45 8
-118 -38 -118 -32 0 -51 25 -51 70 0 21 7 45 14 54 19 23 57 20 75 -6z"/>
<path d="M1270 200 c0 -53 4 -90 10 -90 6 0 10 22 10 49 0 66 14 99 45 107 42
10 55 -10 55 -87 0 -39 4 -69 10 -69 6 0 10 32 10 75 0 68 -2 76 -25 91 -22
14 -27 14 -56 0 -39 -20 -39 -20 -39 -1 0 8 -4 15 -10 15 -6 0 -10 -37 -10
-90z"/>
<path d="M1570 226 c0 -79 6 -95 38 -107 18 -7 31 -5 48 6 29 19 34 19 34 0 0
-8 5 -15 10 -15 6 0 10 37 10 90 0 53 -4 90 -10 90 -6 0 -10 -26 -10 -58 0
-63 -19 -102 -50 -102 -36 0 -50 27 -50 96 0 36 -4 64 -10 64 -6 0 -10 -28
-10 -64z"/>
<path d="M1770 165 c0 -77 4 -125 10 -125 6 0 10 23 10 50 0 28 2 50 5 50 3 0
16 -7 29 -15 45 -30 96 10 96 75 0 65 -51 105 -96 75 -29 -19 -34 -19 -34 0 0
8 -4 15 -10 15 -6 0 -10 -48 -10 -125z m114 83 c30 -42 9 -118 -33 -118 -35 0
-54 25 -54 70 0 66 54 95 87 48z"/>
<path d="M8430 200 c0 -53 4 -90 10 -90 6 0 10 22 10 49 0 71 14 100 50 107
16 4 30 11 30 16 0 10 -40 1 -54 -13 -15 -13 -26 -11 -26 6 0 8 -4 15 -10 15
-6 0 -10 -37 -10 -90z"/>
<path d="M8594 280 c-29 -12 -54 -49 -54 -80 0 -56 54 -96 116 -84 49 9 42 25
-9 18 -44 -6 -65 7 -80 49 -6 15 1 17 63 17 39 0 70 2 70 4 0 24 -28 69 -47
77 -28 11 -31 11 -59 -1z m64 -22 c26 -26 13 -38 -38 -38 -37 0 -50 4 -50 15
0 29 64 47 88 23z"/>
<path d="M8740 285 c0 -3 10 -44 21 -90 30 -118 48 -112 75 23 11 53 20 45 38
-33 11 -46 23 -75 31 -75 8 0 21 31 34 78 23 87 25 102 12 102 -5 0 -17 -32
-26 -71 -20 -79 -26 -77 -46 14 -17 77 -38 74 -59 -10 -8 -34 -18 -64 -21 -67
-3 -3 -13 26 -23 64 -10 39 -22 70 -27 70 -5 0 -9 -2 -9 -5z"/>
<path d="M9043 283 c-13 -2 -23 -8 -23 -13 0 -5 13 -7 29 -4 33 7 71 -10 71
-31 0 -11 -12 -15 -40 -15 -38 0 -80 -26 -80 -49 0 -45 47 -69 91 -47 25 12
29 13 29 0 0 -8 5 -14 10 -14 15 0 12 133 -2 153 -15 18 -52 27 -85 20z m77
-100 c0 -25 -30 -53 -56 -53 -29 0 -46 28 -33 52 13 25 89 26 89 1z"/>
<path d="M9210 200 c0 -53 4 -90 10 -90 6 0 10 22 10 49 0 71 14 100 50 107
16 4 30 11 30 16 0 10 -40 1 -54 -13 -15 -13 -26 -11 -26 6 0 8 -4 15 -10 15
-6 0 -10 -37 -10 -90z"/>
<path d="M9584 280 c-29 -12 -54 -49 -54 -80 0 -56 54 -96 116 -84 49 9 42 25
-9 18 -44 -6 -65 7 -80 49 -6 15 1 17 63 17 39 0 70 2 70 4 0 24 -28 69 -47
77 -28 11 -31 11 -59 -1z m64 -22 c26 -26 13 -38 -38 -38 -37 0 -50 4 -50 15
0 29 64 47 88 23z"/>
</g>
</svg>
